<svg width="750" height="128" viewBox="0 0 750 128" fill="none" xmlns="http://www.w3.org/2000/svg">
<g clip-path="url(#clip0_226_521)">
<path d="M133.836 89.2888C133.836 92.9127 134.389 96.2849 135.497 99.4055C136.604 102.425 138.164 105.043 140.177 107.257C142.191 109.371 144.657 111.082 147.576 112.391C150.496 113.599 153.767 114.203 157.391 114.203C161.015 114.203 164.286 113.599 167.206 112.391C170.125 111.082 172.591 109.371 174.605 107.257C176.618 105.043 178.178 102.425 179.285 99.4055C180.393 96.2849 180.946 92.9127 180.946 89.2888C180.946 85.6649 180.393 82.343 179.285 79.3231C178.178 76.2025 176.618 73.5852 174.605 71.4713C172.591 69.2567 170.125 67.5454 167.206 66.3374C164.286 65.0288 161.015 64.3745 157.391 64.3745C153.767 64.3745 150.496 65.0288 147.576 66.3374C144.657 67.5454 142.191 69.2567 140.177 71.4713C138.164 73.5852 136.604 76.2025 135.497 79.3231C134.389 82.343 133.836 85.6649 133.836 89.2888ZM119.34 89.2888C119.34 84.0543 120.296 79.1721 122.209 74.6422C124.222 70.1123 126.94 66.1361 130.363 62.7135C133.785 59.291 137.812 56.6234 142.442 54.7108C147.073 52.6975 152.056 51.6909 157.391 51.6909C162.726 51.6909 167.709 52.6975 172.34 54.7108C176.97 56.6234 180.997 59.291 184.419 62.7135C187.842 66.1361 190.509 70.1123 192.422 74.6422C194.435 79.1721 195.442 84.0543 195.442 89.2888C195.442 94.5233 194.435 99.4558 192.422 104.086C190.509 108.616 187.842 112.592 184.419 116.015C180.997 119.337 176.97 122.005 172.34 124.018C167.709 125.93 162.726 126.887 157.391 126.887C152.056 126.887 147.073 125.93 142.442 124.018C137.812 122.005 133.785 119.337 130.363 116.015C126.94 112.592 124.222 108.616 122.209 104.086C120.296 99.4558 119.34 94.5233 119.34 89.2888Z" fill="white"/>
<path d="M293.484 94.4965C293.484 97.6171 294.138 100.486 295.447 103.103C296.856 105.62 298.668 107.784 300.883 109.596C303.098 111.408 305.664 112.817 308.584 113.824C311.503 114.831 314.523 115.334 317.643 115.334C321.871 115.334 325.546 114.378 328.666 112.465C331.787 110.452 334.656 107.834 337.273 104.613L347.541 112.465C339.991 122.229 329.421 127.112 315.831 127.112C310.194 127.112 305.06 126.155 300.43 124.243C295.9 122.33 292.024 119.713 288.803 116.391C285.683 112.968 283.267 108.992 281.555 104.462C279.844 99.8317 278.989 94.8488 278.989 89.5136C278.989 84.1785 279.894 79.2459 281.706 74.7161C283.619 70.0855 286.186 66.1093 289.407 62.7874C292.729 59.3648 296.655 56.6972 301.185 54.7846C305.715 52.872 310.647 51.9157 315.982 51.9157C322.324 51.9157 327.659 53.023 331.988 55.2376C336.417 57.4522 340.041 60.3715 342.86 63.9954C345.678 67.5186 347.692 71.5451 348.9 76.075C350.208 80.5042 350.862 85.0341 350.862 89.6646V94.4965H293.484ZM336.367 83.6248C336.266 80.6049 335.763 77.8366 334.857 75.32C334.052 72.8034 332.793 70.6392 331.082 68.8272C329.371 66.9146 327.206 65.455 324.589 64.4484C322.073 63.341 319.103 62.7874 315.68 62.7874C312.359 62.7874 309.288 63.4417 306.47 64.7503C303.752 65.9583 301.437 67.5689 299.524 69.5822C297.611 71.5955 296.101 73.8604 294.994 76.377C293.987 78.7929 293.484 81.2089 293.484 83.6248H336.367Z" fill="white"/>
<path d="M269.578 23.9076L297.512 0L246.173 127.088H229.312L269.578 23.9076Z" fill="white"/>
<path d="M215.232 51.7765L234.458 97.5821L225.65 119.225L197.144 51.7765L215.232 51.7765Z" fill="white"/>
<path d="M0 55.516H12.6836L12.9856 66.6897C13.2876 65.6831 14.0426 64.4248 15.2506 62.9148C16.5592 61.4049 18.1698 59.9956 20.0824 58.687C22.0957 57.2777 24.411 56.12 27.0282 55.2141C29.7461 54.2074 32.7157 53.7041 35.937 53.7041C41.4144 54.2501 43.3247 55.2141 45.5368 57.026C49.3631 59.7659 51.4392 62.5625 53.7545 66.9917C56.0697 62.5625 59.3413 59.2406 63.5692 57.026C67.7744 54.4243 74.2192 53.7041 80.9337 53.7041C86.4702 53.7041 91.0001 54.6101 94.5233 56.422C98.0465 58.234 100.815 60.6499 102.828 63.6698C104.841 66.5891 106.2 69.9613 106.905 73.7865C107.71 77.5111 108.113 81.3866 108.113 85.4132V127.088H94.5233V87.2251C94.5233 84.5072 94.322 81.89 93.9193 79.3734C93.6173 76.8568 92.9127 74.6422 91.8054 72.7296C90.6981 70.8169 89.1378 69.307 87.1245 68.1997C85.1112 66.9917 82.4436 66.3877 79.1217 66.3877C72.5786 66.3877 67.8977 68.401 65.0791 72.4276C62.2606 76.4541 60.8513 81.6383 60.8513 87.9801V127.088H47.2616V89.6411C47.2616 86.2185 47.0603 83.0979 46.6577 80.2793C46.3557 77.4608 45.651 75.0448 44.5437 73.0315C43.5371 70.9176 42.0271 69.307 40.0139 68.1997C38.1012 66.9917 35.484 66.3877 32.1621 66.3877C29.7462 66.3877 27.3805 66.8911 25.0653 67.8977C22.8507 68.8037 20.8877 70.213 19.1765 72.1256C17.4652 74.0382 16.1062 76.5044 15.0996 79.5244C14.0929 82.4436 13.5896 85.9165 13.5896 89.9431V127.088H0L0 55.516Z" fill="white"/>
<path d="M6.49287 66.9917C8.80813 62.5625 12.0797 59.2406 16.3076 57.026C20.5128 54.4243 26.9577 53.7041 33.6721 53.7041C39.2086 53.7041 43.7385 54.6101 47.2617 56.422C50.7849 58.234 53.5532 60.6499 55.5665 63.6698C57.5797 66.5891 58.9387 69.9613 59.6434 73.7865C60.4487 77.5111 60.8513 81.3866 60.8513 85.4132L60.8513 127.088H47.2616L47.2617 87.2251C47.2617 84.5072 47.0604 81.89 46.6577 79.3734C46.3557 76.8568 45.6511 74.6422 44.5438 72.7296C43.4365 70.8169 41.8762 69.307 39.8629 68.1997C37.8496 66.9917 35.182 66.3877 31.8601 66.3877C25.317 66.3877 20.6361 68.401 17.8175 72.4276C14.999 76.4541 13.5897 81.6383 13.5897 87.9801L13.5896 127.088H0L5.10002e-05 89.6411C5.10002e-05 80.0925 1.96926 75.6442 6.49287 66.9917Z" fill="white"/>
<path d="M0.605751 55.5145H13.5276V125.897H0.605751V55.5145Z" fill="white"/>
</g>
<path d="M405.752 73.192C404.173 73.192 402.851 72.9147 401.784 72.36C400.717 71.8053 399.789 71.0373 399 70.056L401.24 68.008C401.859 68.7547 402.541 69.3413 403.288 69.768C404.056 70.1733 404.941 70.376 405.944 70.376C406.968 70.376 407.725 70.184 408.216 69.8C408.728 69.3947 408.984 68.84 408.984 68.136C408.984 67.6027 408.803 67.1547 408.44 66.792C408.099 66.408 407.491 66.1627 406.616 66.056L405.08 65.864C403.373 65.6507 402.029 65.16 401.048 64.392C400.088 63.6027 399.608 62.44 399.608 60.904C399.608 60.0933 399.757 59.3787 400.056 58.76C400.355 58.12 400.771 57.5867 401.304 57.16C401.859 56.712 402.509 56.3707 403.256 56.136C404.024 55.9013 404.867 55.784 405.784 55.784C407.277 55.784 408.493 56.0187 409.432 56.488C410.392 56.9573 411.245 57.608 411.992 58.44L409.848 60.488C409.421 59.976 408.856 59.5387 408.152 59.176C407.469 58.792 406.68 58.6 405.784 58.6C404.824 58.6 404.109 58.792 403.64 59.176C403.192 59.56 402.968 60.0613 402.968 60.68C402.968 61.32 403.171 61.8 403.576 62.12C403.981 62.44 404.632 62.6747 405.528 62.824L407.064 63.016C408.899 63.2933 410.232 63.8373 411.064 64.648C411.917 65.4373 412.344 66.504 412.344 67.848C412.344 68.6587 412.184 69.3947 411.864 70.056C411.565 70.696 411.128 71.2507 410.552 71.72C409.976 72.1893 409.283 72.552 408.472 72.808C407.661 73.064 406.755 73.192 405.752 73.192Z" fill="white"/>
<path d="M420.674 72.808C419.458 72.808 418.54 72.4987 417.922 71.88C417.303 71.24 416.994 70.344 416.994 69.192V59.016H414.402V56.168H415.81C416.386 56.168 416.78 56.04 416.994 55.784C417.228 55.528 417.346 55.112 417.346 54.536V51.624H420.482V56.168H423.97V59.016H420.482V69.96H423.714V72.808H420.674Z" fill="white"/>
<path d="M437.833 70.056H437.705C437.556 70.4613 437.353 70.856 437.097 71.24C436.863 71.624 436.553 71.9653 436.169 72.264C435.807 72.5413 435.359 72.7653 434.825 72.936C434.313 73.1067 433.716 73.192 433.033 73.192C431.305 73.192 429.961 72.6373 429.001 71.528C428.063 70.4187 427.593 68.8293 427.593 66.76V56.168H431.081V66.312C431.081 68.8933 432.148 70.184 434.281 70.184C434.729 70.184 435.167 70.1307 435.593 70.024C436.02 69.896 436.393 69.7147 436.713 69.48C437.055 69.2453 437.321 68.9467 437.513 68.584C437.727 68.2213 437.833 67.7947 437.833 67.304V56.168H441.321V72.808H437.833V70.056Z" fill="white"/>
<path d="M456.78 70.056H456.62C456.257 71.0373 455.66 71.8053 454.828 72.36C454.017 72.9147 453.057 73.192 451.948 73.192C449.836 73.192 448.204 72.4347 447.052 70.92C445.9 69.384 445.324 67.24 445.324 64.488C445.324 61.736 445.9 59.6027 447.052 58.088C448.204 56.552 449.836 55.784 451.948 55.784C453.057 55.784 454.017 56.0613 454.828 56.616C455.66 57.1493 456.257 57.9173 456.62 58.92H456.78V49.128H460.268V72.808H456.78V70.056ZM453.004 70.184C454.07 70.184 454.966 69.928 455.692 69.416C456.417 68.8827 456.78 68.1893 456.78 67.336V61.64C456.78 60.7867 456.417 60.104 455.692 59.592C454.966 59.0587 454.07 58.792 453.004 58.792C451.788 58.792 450.817 59.1867 450.092 59.976C449.366 60.744 449.004 61.768 449.004 63.048V65.928C449.004 67.208 449.366 68.2427 450.092 69.032C450.817 69.8 451.788 70.184 453.004 70.184Z" fill="white"/>
<path d="M471.781 73.192C470.587 73.192 469.52 72.9893 468.581 72.584C467.643 72.1787 466.843 71.6027 466.181 70.856C465.52 70.088 465.008 69.1707 464.645 68.104C464.304 67.016 464.133 65.8107 464.133 64.488C464.133 63.1653 464.304 61.9707 464.645 60.904C465.008 59.816 465.52 58.8987 466.181 58.152C466.843 57.384 467.643 56.7973 468.581 56.392C469.52 55.9867 470.587 55.784 471.781 55.784C472.997 55.784 474.064 55.9973 474.981 56.424C475.92 56.8507 476.699 57.448 477.317 58.216C477.936 58.9627 478.395 59.8373 478.693 60.84C479.013 61.8427 479.173 62.92 479.173 64.072V65.384H467.749V65.928C467.749 67.208 468.123 68.264 468.869 69.096C469.637 69.9067 470.725 70.312 472.133 70.312C473.157 70.312 474.021 70.088 474.725 69.64C475.429 69.192 476.027 68.584 476.517 67.816L478.565 69.832C477.947 70.856 477.051 71.6773 475.877 72.296C474.704 72.8933 473.339 73.192 471.781 73.192ZM471.781 58.504C471.184 58.504 470.629 58.6107 470.117 58.824C469.627 59.0373 469.2 59.336 468.837 59.72C468.496 60.104 468.229 60.5627 468.037 61.096C467.845 61.6293 467.749 62.216 467.749 62.856V63.08H475.493V62.76C475.493 61.48 475.163 60.456 474.501 59.688C473.84 58.8987 472.933 58.504 471.781 58.504Z" fill="white"/>
<path d="M483.035 72.808V56.168H486.522V58.92H486.683C487.045 58.024 487.589 57.2773 488.314 56.68C489.061 56.0827 490.075 55.784 491.354 55.784C493.061 55.784 494.384 56.3493 495.323 57.48C496.283 58.5893 496.763 60.1787 496.763 62.248V72.808H493.274V62.696C493.274 60.0933 492.229 58.792 490.139 58.792C489.691 58.792 489.243 58.856 488.795 58.984C488.368 59.0907 487.984 59.2613 487.643 59.496C487.301 59.7307 487.024 60.0293 486.811 60.392C486.618 60.7547 486.522 61.1813 486.522 61.672V72.808H483.035Z" fill="white"/>
<path d="M506.205 72.808C504.989 72.808 504.072 72.4987 503.453 71.88C502.834 71.24 502.525 70.344 502.525 69.192V59.016H499.933V56.168H501.341C501.917 56.168 502.312 56.04 502.525 55.784C502.76 55.528 502.877 55.112 502.877 54.536V51.624H506.013V56.168H509.501V59.016H506.013V69.96H509.245V72.808H506.205Z" fill="white"/>
<path d="M515.045 53.192C514.319 53.192 513.786 53.0213 513.445 52.68C513.125 52.3387 512.965 51.9013 512.965 51.368V50.824C512.965 50.2907 513.125 49.8533 513.445 49.512C513.786 49.1707 514.319 49 515.045 49C515.77 49 516.293 49.1707 516.613 49.512C516.933 49.8533 517.092 50.2907 517.092 50.824V51.368C517.092 51.9013 516.933 52.3387 516.613 52.68C516.293 53.0213 515.77 53.192 515.045 53.192ZM513.285 56.168H516.772V72.808H513.285V56.168Z" fill="white"/>
<path d="M527.033 73.192C525.455 73.192 524.132 72.9147 523.065 72.36C521.999 71.8053 521.071 71.0373 520.281 70.056L522.521 68.008C523.14 68.7547 523.823 69.3413 524.569 69.768C525.337 70.1733 526.223 70.376 527.225 70.376C528.249 70.376 529.007 70.184 529.497 69.8C530.009 69.3947 530.265 68.84 530.265 68.136C530.265 67.6027 530.084 67.1547 529.721 66.792C529.38 66.408 528.772 66.1627 527.897 66.056L526.361 65.864C524.655 65.6507 523.311 65.16 522.329 64.392C521.369 63.6027 520.889 62.44 520.889 60.904C520.889 60.0933 521.039 59.3787 521.337 58.76C521.636 58.12 522.052 57.5867 522.585 57.16C523.14 56.712 523.791 56.3707 524.537 56.136C525.305 55.9013 526.148 55.784 527.065 55.784C528.559 55.784 529.775 56.0187 530.713 56.488C531.673 56.9573 532.527 57.608 533.273 58.44L531.129 60.488C530.703 59.976 530.137 59.5387 529.433 59.176C528.751 58.792 527.961 58.6 527.065 58.6C526.105 58.6 525.391 58.792 524.921 59.176C524.473 59.56 524.249 60.0613 524.249 60.68C524.249 61.32 524.452 61.8 524.857 62.12C525.263 62.44 525.913 62.6747 526.809 62.824L528.345 63.016C530.18 63.2933 531.513 63.8373 532.345 64.648C533.199 65.4373 533.625 66.504 533.625 67.848C533.625 68.6587 533.465 69.3947 533.145 70.056C532.847 70.696 532.409 71.2507 531.833 71.72C531.257 72.1893 530.564 72.552 529.753 72.808C528.943 73.064 528.036 73.192 527.033 73.192Z" fill="white"/>
<path d="M543.998 73.192C542.803 73.192 541.736 72.9893 540.798 72.584C539.859 72.1787 539.07 71.6027 538.43 70.856C537.79 70.088 537.299 69.1707 536.958 68.104C536.616 67.016 536.446 65.8107 536.446 64.488C536.446 63.1653 536.616 61.9707 536.958 60.904C537.299 59.816 537.79 58.8987 538.43 58.152C539.07 57.384 539.859 56.7973 540.798 56.392C541.736 55.9867 542.803 55.784 543.998 55.784C545.662 55.784 547.027 56.1573 548.094 56.904C549.16 57.6507 549.939 58.6427 550.43 59.88L547.55 61.224C547.315 60.456 546.899 59.848 546.302 59.4C545.726 58.9307 544.958 58.696 543.998 58.696C542.718 58.696 541.747 59.1013 541.086 59.912C540.446 60.7013 540.126 61.736 540.126 63.016V65.992C540.126 67.272 540.446 68.3173 541.086 69.128C541.747 69.9173 542.718 70.312 543.998 70.312C545.022 70.312 545.832 70.0667 546.43 69.576C547.048 69.064 547.539 68.392 547.902 67.56L550.558 68.968C550.003 70.3333 549.171 71.3787 548.062 72.104C546.952 72.8293 545.598 73.192 543.998 73.192Z" fill="white"/>
<path d="M553.878 49.128H557.366V58.92H557.526C557.889 58.024 558.433 57.2773 559.158 56.68C559.905 56.0827 560.918 55.784 562.198 55.784C563.905 55.784 565.228 56.3493 566.166 57.48C567.126 58.5893 567.606 60.1787 567.606 62.248V72.808H564.118V62.664C564.118 60.0827 563.073 58.792 560.982 58.792C560.534 58.792 560.086 58.856 559.638 58.984C559.212 59.0907 558.828 59.2613 558.486 59.496C558.145 59.7307 557.868 60.0293 557.654 60.392C557.462 60.7547 557.366 61.1707 557.366 61.64V72.808H553.878V49.128Z" fill="white"/>
<path d="M578.969 73.192C577.774 73.192 576.707 72.9893 575.769 72.584C574.83 72.1787 574.03 71.6027 573.369 70.856C572.707 70.088 572.195 69.1707 571.833 68.104C571.491 67.016 571.321 65.8107 571.321 64.488C571.321 63.1653 571.491 61.9707 571.833 60.904C572.195 59.816 572.707 58.8987 573.369 58.152C574.03 57.384 574.83 56.7973 575.769 56.392C576.707 55.9867 577.774 55.784 578.969 55.784C580.185 55.784 581.251 55.9973 582.169 56.424C583.107 56.8507 583.886 57.448 584.505 58.216C585.123 58.9627 585.582 59.8373 585.881 60.84C586.201 61.8427 586.361 62.92 586.361 64.072V65.384H574.937V65.928C574.937 67.208 575.31 68.264 576.057 69.096C576.825 69.9067 577.913 70.312 579.321 70.312C580.345 70.312 581.209 70.088 581.913 69.64C582.617 69.192 583.214 68.584 583.705 67.816L585.753 69.832C585.134 70.856 584.238 71.6773 583.065 72.296C581.891 72.8933 580.526 73.192 578.969 73.192ZM578.969 58.504C578.371 58.504 577.817 58.6107 577.305 58.824C576.814 59.0373 576.387 59.336 576.025 59.72C575.683 60.104 575.417 60.5627 575.225 61.096C575.033 61.6293 574.937 62.216 574.937 62.856V63.08H582.681V62.76C582.681 61.48 582.35 60.456 581.689 59.688C581.027 58.8987 580.121 58.504 578.969 58.504Z" fill="white"/>
<path d="M404.152 98.472V112.232C404.152 114.131 404.515 115.56 405.24 116.52C405.965 117.48 407.203 117.96 408.952 117.96C410.701 117.96 411.939 117.48 412.664 116.52C413.389 115.56 413.752 114.131 413.752 112.232V98.472H417.304V111.656C417.304 113.299 417.155 114.717 416.856 115.912C416.557 117.107 416.077 118.099 415.416 118.888C414.755 119.656 413.891 120.232 412.824 120.616C411.779 121 410.488 121.192 408.952 121.192C407.416 121.192 406.115 121 405.048 120.616C404.003 120.232 403.149 119.656 402.488 118.888C401.827 118.099 401.347 117.107 401.048 115.912C400.749 114.717 400.6 113.299 400.6 111.656V98.472H404.152Z" fill="white"/>
<path d="M422.41 120.808V104.168H425.898V106.92H426.058C426.42 106.024 426.964 105.277 427.69 104.68C428.436 104.083 429.45 103.784 430.73 103.784C432.436 103.784 433.759 104.349 434.698 105.48C435.658 106.589 436.138 108.179 436.138 110.248V120.808H432.65V110.696C432.65 108.093 431.604 106.792 429.514 106.792C429.066 106.792 428.618 106.856 428.17 106.984C427.743 107.091 427.359 107.261 427.017 107.496C426.676 107.731 426.399 108.029 426.186 108.392C425.994 108.755 425.898 109.181 425.898 109.672V120.808H422.41Z" fill="white"/>
<path d="M445.58 120.808C444.364 120.808 443.447 120.499 442.828 119.88C442.209 119.24 441.9 118.344 441.9 117.192V107.016H439.308V104.168H440.716C441.292 104.168 441.687 104.04 441.9 103.784C442.135 103.528 442.252 103.112 442.252 102.536V99.624H445.388V104.168H448.876V107.016H445.388V117.96H448.62V120.808H445.58Z" fill="white"/>
<path d="M459.062 121.192C457.868 121.192 456.801 120.989 455.862 120.584C454.924 120.179 454.124 119.603 453.463 118.856C452.801 118.088 452.289 117.171 451.926 116.104C451.585 115.016 451.415 113.811 451.415 112.488C451.415 111.165 451.585 109.971 451.926 108.904C452.289 107.816 452.801 106.899 453.463 106.152C454.124 105.384 454.924 104.797 455.862 104.392C456.801 103.987 457.868 103.784 459.062 103.784C460.278 103.784 461.345 103.997 462.263 104.424C463.201 104.851 463.98 105.448 464.599 106.216C465.217 106.963 465.676 107.837 465.975 108.84C466.295 109.843 466.454 110.92 466.454 112.072V113.384H455.03V113.928C455.03 115.208 455.404 116.264 456.151 117.096C456.919 117.907 458.007 118.312 459.415 118.312C460.438 118.312 461.303 118.088 462.007 117.64C462.71 117.192 463.308 116.584 463.799 115.816L465.847 117.832C465.228 118.856 464.332 119.677 463.159 120.296C461.985 120.893 460.62 121.192 459.062 121.192ZM459.062 106.504C458.465 106.504 457.91 106.611 457.398 106.824C456.908 107.037 456.481 107.336 456.118 107.72C455.777 108.104 455.511 108.563 455.319 109.096C455.126 109.629 455.03 110.216 455.03 110.856V111.08H462.775V110.76C462.775 109.48 462.444 108.456 461.783 107.688C461.121 106.899 460.215 106.504 459.062 106.504Z" fill="white"/>
<path d="M470.316 120.808V104.168H473.804V107.368H473.964C474.198 106.515 474.689 105.768 475.436 105.128C476.182 104.488 477.217 104.168 478.54 104.168H479.468V107.528H478.092C476.705 107.528 475.638 107.752 474.892 108.2C474.166 108.648 473.804 109.309 473.804 110.184V120.808H470.316Z" fill="white"/>
<path d="M482.566 120.808V104.168H486.054V106.92H486.214C486.576 106.024 487.12 105.277 487.846 104.68C488.592 104.083 489.606 103.784 490.886 103.784C492.592 103.784 493.915 104.349 494.854 105.48C495.814 106.589 496.294 108.179 496.294 110.248V120.808H492.806V110.696C492.806 108.093 491.76 106.792 489.67 106.792C489.222 106.792 488.774 106.856 488.326 106.984C487.899 107.091 487.515 107.261 487.174 107.496C486.832 107.731 486.555 108.029 486.342 108.392C486.15 108.755 486.054 109.181 486.054 109.672V120.808H482.566Z" fill="white"/>
<path d="M507.656 121.192C506.462 121.192 505.395 120.989 504.456 120.584C503.518 120.179 502.718 119.603 502.056 118.856C501.395 118.088 500.883 117.171 500.52 116.104C500.179 115.016 500.008 113.811 500.008 112.488C500.008 111.165 500.179 109.971 500.52 108.904C500.883 107.816 501.395 106.899 502.056 106.152C502.718 105.384 503.518 104.797 504.456 104.392C505.395 103.987 506.462 103.784 507.656 103.784C508.872 103.784 509.939 103.997 510.856 104.424C511.795 104.851 512.574 105.448 513.192 106.216C513.811 106.963 514.27 107.837 514.568 108.84C514.888 109.843 515.048 110.92 515.048 112.072V113.384H503.624V113.928C503.624 115.208 503.998 116.264 504.744 117.096C505.512 117.907 506.6 118.312 508.008 118.312C509.032 118.312 509.896 118.088 510.6 117.64C511.304 117.192 511.902 116.584 512.392 115.816L514.44 117.832C513.822 118.856 512.926 119.677 511.752 120.296C510.579 120.893 509.214 121.192 507.656 121.192ZM507.656 106.504C507.059 106.504 506.504 106.611 505.992 106.824C505.502 107.037 505.075 107.336 504.712 107.72C504.371 108.104 504.104 108.563 503.912 109.096C503.72 109.629 503.624 110.216 503.624 110.856V111.08H511.368V110.76C511.368 109.48 511.038 108.456 510.376 107.688C509.715 106.899 508.808 106.504 507.656 106.504Z" fill="white"/>
<path d="M518.91 97.128H522.397V106.92H522.558C522.92 106.024 523.464 105.277 524.189 104.68C524.936 104.083 525.95 103.784 527.23 103.784C528.936 103.784 530.259 104.349 531.197 105.48C532.158 106.589 532.637 108.179 532.637 110.248V120.808H529.15V110.664C529.15 108.083 528.104 106.792 526.014 106.792C525.566 106.792 525.118 106.856 524.67 106.984C524.243 107.091 523.859 107.261 523.518 107.496C523.176 107.731 522.899 108.029 522.686 108.392C522.493 108.755 522.397 109.171 522.397 109.64V120.808H518.91V97.128Z" fill="white"/>
<path d="M537.472 120.808V104.168H540.96V106.92H541.12C541.291 106.493 541.493 106.088 541.728 105.704C541.984 105.32 542.283 104.989 542.624 104.712C542.987 104.413 543.403 104.189 543.872 104.04C544.363 103.869 544.928 103.784 545.568 103.784C546.699 103.784 547.701 104.061 548.576 104.616C549.451 105.171 550.091 106.024 550.496 107.176H550.592C550.891 106.237 551.467 105.437 552.32 104.776C553.173 104.115 554.272 103.784 555.616 103.784C557.28 103.784 558.571 104.349 559.488 105.48C560.405 106.589 560.864 108.179 560.864 110.248V120.808H557.376V110.664C557.376 109.384 557.131 108.424 556.64 107.784C556.149 107.123 555.371 106.792 554.304 106.792C553.856 106.792 553.429 106.856 553.024 106.984C552.619 107.091 552.256 107.261 551.936 107.496C551.637 107.731 551.392 108.029 551.2 108.392C551.008 108.755 550.912 109.171 550.912 109.64V120.808H547.424V110.664C547.424 108.083 546.411 106.792 544.384 106.792C543.957 106.792 543.531 106.856 543.104 106.984C542.699 107.091 542.336 107.261 542.016 107.496C541.696 107.731 541.44 108.029 541.248 108.392C541.056 108.755 540.96 109.171 540.96 109.64V120.808H537.472Z" fill="white"/>
<path d="M572.219 121.192C571.024 121.192 569.957 120.989 569.019 120.584C568.08 120.179 567.28 119.603 566.619 118.856C565.957 118.088 565.445 117.171 565.083 116.104C564.741 115.016 564.571 113.811 564.571 112.488C564.571 111.165 564.741 109.971 565.083 108.904C565.445 107.816 565.957 106.899 566.619 106.152C567.28 105.384 568.08 104.797 569.019 104.392C569.957 103.987 571.024 103.784 572.219 103.784C573.435 103.784 574.501 103.997 575.419 104.424C576.357 104.851 577.136 105.448 577.755 106.216C578.373 106.963 578.832 107.837 579.131 108.84C579.451 109.843 579.611 110.92 579.611 112.072V113.384H568.187V113.928C568.187 115.208 568.56 116.264 569.307 117.096C570.075 117.907 571.163 118.312 572.571 118.312C573.595 118.312 574.459 118.088 575.163 117.64C575.867 117.192 576.464 116.584 576.955 115.816L579.003 117.832C578.384 118.856 577.488 119.677 576.315 120.296C575.141 120.893 573.776 121.192 572.219 121.192ZM572.219 106.504C571.621 106.504 571.067 106.611 570.555 106.824C570.064 107.037 569.637 107.336 569.275 107.72C568.933 108.104 568.667 108.563 568.475 109.096C568.283 109.629 568.187 110.216 568.187 110.856V111.08H575.931V110.76C575.931 109.48 575.6 108.456 574.939 107.688C574.277 106.899 573.371 106.504 572.219 106.504Z" fill="white"/>
<path d="M583.472 120.808V104.168H586.96V106.92H587.12C587.483 106.024 588.027 105.277 588.752 104.68C589.499 104.083 590.512 103.784 591.792 103.784C593.499 103.784 594.821 104.349 595.76 105.48C596.72 106.589 597.2 108.179 597.2 110.248V120.808H593.712V110.696C593.712 108.093 592.667 106.792 590.576 106.792C590.128 106.792 589.68 106.856 589.232 106.984C588.805 107.091 588.421 107.261 588.08 107.496C587.739 107.731 587.461 108.029 587.248 108.392C587.056 108.755 586.96 109.181 586.96 109.672V120.808H583.472Z" fill="white"/>
<path d="M607.314 121.192C605.736 121.192 604.413 120.915 603.346 120.36C602.28 119.805 601.352 119.037 600.562 118.056L602.803 116.008C603.421 116.755 604.104 117.341 604.85 117.768C605.618 118.173 606.504 118.376 607.507 118.376C608.531 118.376 609.288 118.184 609.779 117.8C610.29 117.395 610.546 116.84 610.546 116.136C610.546 115.603 610.365 115.155 610.003 114.792C609.661 114.408 609.053 114.163 608.178 114.056L606.643 113.864C604.936 113.651 603.592 113.16 602.611 112.392C601.65 111.603 601.171 110.44 601.171 108.904C601.171 108.093 601.32 107.379 601.618 106.76C601.917 106.12 602.333 105.587 602.867 105.16C603.421 104.712 604.072 104.371 604.818 104.136C605.587 103.901 606.429 103.784 607.346 103.784C608.84 103.784 610.056 104.019 610.995 104.488C611.955 104.957 612.808 105.608 613.555 106.44L611.411 108.488C610.984 107.976 610.419 107.539 609.715 107.176C609.032 106.792 608.242 106.6 607.346 106.6C606.386 106.6 605.672 106.792 605.202 107.176C604.755 107.56 604.531 108.061 604.531 108.68C604.531 109.32 604.733 109.8 605.139 110.12C605.544 110.44 606.195 110.675 607.09 110.824L608.626 111.016C610.461 111.293 611.794 111.837 612.626 112.648C613.48 113.437 613.906 114.504 613.906 115.848C613.906 116.659 613.747 117.395 613.426 118.056C613.128 118.696 612.691 119.251 612.115 119.72C611.538 120.189 610.845 120.552 610.035 120.808C609.224 121.064 608.317 121.192 607.314 121.192Z" fill="white"/>
<path d="M617.847 97.128H621.335V106.92H621.495C621.858 105.917 622.444 105.149 623.255 104.616C624.087 104.061 625.058 103.784 626.167 103.784C628.279 103.784 629.911 104.552 631.063 106.088C632.215 107.603 632.791 109.736 632.791 112.488C632.791 115.24 632.215 117.384 631.063 118.92C629.911 120.435 628.279 121.192 626.167 121.192C625.058 121.192 624.087 120.915 623.255 120.36C622.444 119.805 621.858 119.037 621.495 118.056H621.335V120.808H617.847V97.128ZM625.111 118.184C626.327 118.184 627.298 117.8 628.023 117.032C628.748 116.243 629.111 115.208 629.111 113.928V111.048C629.111 109.768 628.748 108.744 628.023 107.976C627.298 107.187 626.327 106.792 625.111 106.792C624.044 106.792 623.148 107.059 622.423 107.592C621.698 108.104 621.335 108.787 621.335 109.64V115.336C621.335 116.189 621.698 116.883 622.423 117.416C623.148 117.928 624.044 118.184 625.111 118.184Z" fill="white"/>
<path d="M643.312 121.192C642.118 121.192 641.051 120.989 640.113 120.584C639.174 120.179 638.374 119.603 637.712 118.856C637.051 118.088 636.539 117.171 636.176 116.104C635.835 115.016 635.665 113.811 635.665 112.488C635.665 111.165 635.835 109.971 636.176 108.904C636.539 107.816 637.051 106.899 637.712 106.152C638.374 105.384 639.174 104.797 640.113 104.392C641.051 103.987 642.118 103.784 643.312 103.784C644.529 103.784 645.595 103.997 646.512 104.424C647.451 104.851 648.23 105.448 648.848 106.216C649.467 106.963 649.926 107.837 650.225 108.84C650.544 109.843 650.704 110.92 650.704 112.072V113.384H639.281V113.928C639.281 115.208 639.654 116.264 640.4 117.096C641.169 117.907 642.257 118.312 643.665 118.312C644.689 118.312 645.553 118.088 646.257 117.64C646.96 117.192 647.558 116.584 648.049 115.816L650.096 117.832C649.478 118.856 648.582 119.677 647.409 120.296C646.235 120.893 644.87 121.192 643.312 121.192ZM643.312 106.504C642.715 106.504 642.16 106.611 641.648 106.824C641.158 107.037 640.731 107.336 640.368 107.72C640.027 108.104 639.76 108.563 639.568 109.096C639.376 109.629 639.281 110.216 639.281 110.856V111.08H647.025V110.76C647.025 109.48 646.694 108.456 646.033 107.688C645.371 106.899 644.465 106.504 643.312 106.504Z" fill="white"/>
<path d="M654.566 120.808V104.168H658.054V107.368H658.214C658.448 106.515 658.939 105.768 659.686 105.128C660.432 104.488 661.467 104.168 662.79 104.168H663.718V107.528H662.342C660.955 107.528 659.888 107.752 659.142 108.2C658.416 108.648 658.054 109.309 658.054 110.184V120.808H654.566Z" fill="white"/>
<path d="M678.758 120.808C677.84 120.808 677.136 120.552 676.646 120.04C676.155 119.507 675.856 118.835 675.75 118.024H675.59C675.27 119.069 674.683 119.859 673.83 120.392C672.976 120.925 671.942 121.192 670.726 121.192C668.998 121.192 667.664 120.744 666.726 119.848C665.808 118.952 665.35 117.747 665.35 116.232C665.35 114.568 665.947 113.32 667.142 112.488C668.358 111.656 670.128 111.24 672.454 111.24H675.462V109.832C675.462 108.808 675.184 108.019 674.63 107.464C674.075 106.909 673.211 106.632 672.038 106.632C671.056 106.632 670.256 106.845 669.638 107.272C669.019 107.699 668.496 108.243 668.07 108.904L665.99 107.016C666.544 106.077 667.323 105.309 668.326 104.712C669.328 104.093 670.64 103.784 672.262 103.784C674.416 103.784 676.07 104.285 677.222 105.288C678.374 106.291 678.95 107.731 678.95 109.608V117.96H680.71V120.808H678.758ZM671.718 118.536C672.806 118.536 673.702 118.301 674.406 117.832C675.11 117.341 675.462 116.691 675.462 115.88V113.48H672.518C670.107 113.48 668.902 114.227 668.902 115.72V116.296C668.902 117.043 669.147 117.608 669.638 117.992C670.15 118.355 670.843 118.536 671.718 118.536Z" fill="white"/>
<path d="M688.642 120.808C687.426 120.808 686.509 120.499 685.891 119.88C685.272 119.24 684.962 118.344 684.962 117.192V107.016H682.371V104.168H683.779C684.354 104.168 684.749 104.04 684.962 103.784C685.197 103.528 685.315 103.112 685.315 102.536V99.624H688.451V104.168H691.939V107.016H688.451V117.96H691.682V120.808H688.642Z" fill="white"/>
<path d="M705.802 118.056H705.674C705.525 118.461 705.322 118.856 705.066 119.24C704.831 119.624 704.522 119.965 704.138 120.264C703.775 120.541 703.327 120.765 702.794 120.936C702.282 121.107 701.685 121.192 701.002 121.192C699.274 121.192 697.93 120.637 696.97 119.528C696.031 118.419 695.562 116.829 695.562 114.76V104.168H699.05V114.312C699.05 116.893 700.117 118.184 702.25 118.184C702.698 118.184 703.135 118.131 703.562 118.024C703.989 117.896 704.362 117.715 704.682 117.48C705.023 117.245 705.29 116.947 705.482 116.584C705.695 116.221 705.802 115.795 705.802 115.304V104.168H709.29V120.808H705.802V118.056Z" fill="white"/>
<path d="M714.284 120.808V104.168H717.772V106.92H717.932C718.295 106.024 718.839 105.277 719.565 104.68C720.311 104.083 721.324 103.784 722.604 103.784C724.311 103.784 725.634 104.349 726.573 105.48C727.533 106.589 728.013 108.179 728.013 110.248V120.808H724.525V110.696C724.525 108.093 723.479 106.792 721.388 106.792C720.94 106.792 720.492 106.856 720.044 106.984C719.618 107.091 719.234 107.261 718.892 107.496C718.551 107.731 718.274 108.029 718.06 108.392C717.868 108.755 717.772 109.181 717.772 109.672V120.808H714.284Z" fill="white"/>
<path d="M747.439 122.376C747.439 124.104 746.778 125.405 745.455 126.28C744.132 127.155 741.978 127.592 738.991 127.592C737.626 127.592 736.463 127.496 735.503 127.304C734.564 127.133 733.786 126.877 733.167 126.536C732.57 126.195 732.132 125.779 731.855 125.288C731.578 124.797 731.439 124.232 731.439 123.592C731.439 122.675 731.684 121.96 732.175 121.448C732.687 120.936 733.391 120.584 734.287 120.392V120.04C733.028 119.635 732.399 118.781 732.399 117.48C732.399 116.627 732.687 115.976 733.263 115.528C733.839 115.059 734.532 114.728 735.343 114.536V114.408C734.362 113.939 733.604 113.288 733.071 112.456C732.559 111.603 732.303 110.611 732.303 109.48C732.303 107.773 732.868 106.397 733.999 105.352C735.151 104.307 736.794 103.784 738.927 103.784C740.1 103.784 741.103 103.955 741.935 104.296V103.848C741.935 103.101 742.106 102.525 742.447 102.12C742.81 101.693 743.364 101.48 744.111 101.48H746.671V104.296H743.279V104.968C744.026 105.459 744.602 106.099 745.007 106.888C745.412 107.656 745.615 108.52 745.615 109.48C745.615 111.165 745.039 112.531 743.887 113.576C742.735 114.6 741.092 115.112 738.959 115.112C738.148 115.112 737.423 115.027 736.783 114.856C736.356 115.005 735.983 115.219 735.663 115.496C735.343 115.752 735.183 116.093 735.183 116.52C735.183 116.968 735.386 117.288 735.791 117.48C736.196 117.672 736.772 117.768 737.519 117.768H741.615C743.663 117.768 745.146 118.184 746.063 119.016C746.98 119.827 747.439 120.947 747.439 122.376ZM744.175 122.76C744.175 122.184 743.951 121.725 743.503 121.384C743.076 121.043 742.287 120.872 741.135 120.872H735.503C734.735 121.32 734.351 121.96 734.351 122.792C734.351 123.475 734.618 124.019 735.151 124.424C735.706 124.851 736.634 125.064 737.935 125.064H740.111C742.82 125.064 744.175 124.296 744.175 122.76ZM738.959 112.584C739.983 112.584 740.772 112.36 741.327 111.912C741.903 111.443 742.191 110.728 742.191 109.768V109.128C742.191 108.168 741.903 107.464 741.327 107.016C740.772 106.547 739.983 106.312 738.959 106.312C737.935 106.312 737.135 106.547 736.559 107.016C736.004 107.464 735.727 108.168 735.727 109.128V109.768C735.727 110.728 736.004 111.443 736.559 111.912C737.135 112.36 737.935 112.584 738.959 112.584Z" fill="white"/>
<defs>
<clipPath id="clip0_226_521">
<rect width="351" height="128" fill="white"/>
</clipPath>
</defs>
</svg>
